<?xml version="1.0" standalone="no"?><!DOCTYPE svg PUBLIC "-//W3C//DTD SVG 1.1//EN" "http://www.w3.org/Graphics/SVG/1.1/DTD/svg11.dtd"><svg t="1602181437365" class="icon" viewBox="0 0 1024 1024" version="1.1" xmlns="http://www.w3.org/2000/svg" p-id="7277" xmlns:xlink="http://www.w3.org/1999/xlink" width="800" height="800"><defs><style type="text/css"></style></defs><path d="M421.176 523.54H107.723c-18.885 0-34.194-15.31-34.194-34.195V113.937c0-18.886 15.31-34.195 34.194-34.195H592.15c18.887 0 34.195 15.31 34.195 34.195v261.426" fill="#E0D224" p-id="7278"></path><path d="M421.176 533.54H107.723c-24.369 0-44.194-19.826-44.194-44.195V113.937c0-24.369 19.825-44.195 44.194-44.195H592.15c24.369 0 44.195 19.826 44.195 44.195v261.426h-20V113.937c0-13.342-10.854-24.195-24.195-24.195H107.723c-13.341 0-24.194 10.854-24.194 24.195v375.408c0 13.342 10.854 24.195 24.194 24.195h313.453v20z" fill="#12126D" p-id="7279"></path><path d="M449.662 1009.677c-12.569 0-22.796-10.227-22.796-22.797V386.925c0-12.57 10.227-22.796 22.796-22.796h501.524c12.57 0 22.797 10.226 22.797 22.796V986.88c0 12.57-10.227 22.797-22.797 22.797H449.662z" fill="#FFFFFF" p-id="7280"></path><path d="M951.188 375.527c6.178 0 11.398 5.222 11.398 11.397v599.953c0 6.181-5.221 11.399-11.398 11.399H449.662c-6.178 0-11.396-5.219-11.396-11.399V386.925c0-6.176 5.219-11.397 11.396-11.397h501.526m0-22.798H449.662c-18.807 0-34.193 15.388-34.193 34.194v599.953c0 18.808 15.387 34.195 34.193 34.195h501.525c18.807 0 34.195-15.388 34.195-34.195V386.925c0.001-18.807-15.388-34.195-34.194-34.195" fill="#12126D" p-id="7281"></path><path d="M438.074 602.771H85.873c-24.369 0-44.195-19.825-44.195-44.193 0-24.369 19.826-44.194 44.195-44.194h352.201v20H85.873c-13.342 0-24.195 10.854-24.195 24.194s10.854 24.193 24.195 24.193h352.201v20z" fill="#12126D" p-id="7282"></path><path d="M520.715 658.474c-12.57 0-22.797-10.225-22.797-22.797V464.702c0-12.568 10.227-22.796 22.797-22.796h359.421c12.569 0 22.796 10.228 22.796 22.796v170.975c0 12.572-10.227 22.797-22.796 22.797H520.715z" fill="#B4CEFC" p-id="7283"></path><path d="M880.136 453.306c6.284 0 11.398 5.113 11.398 11.396v170.975c0 6.287-5.114 11.398-11.398 11.398H520.713c-6.285 0-11.397-5.111-11.397-11.398V464.702c0-6.283 5.112-11.396 11.397-11.396h359.423m0-22.798H520.713c-18.885 0-34.194 15.311-34.194 34.194v170.975c0 18.886 15.31 34.195 34.194 34.195h359.423c18.885 0 34.194-15.31 34.194-34.195V464.702c0-18.884-15.309-34.194-34.194-34.194" fill="#12126D" p-id="7284"></path><path d="M497.918 724.584h79.787v79.789h-79.787z" fill="#B4CEFC" p-id="7285"></path><path d="M566.309 792.974h-56.992v-56.991h56.992v56.991z m12.113-79.787H497.2c-5.898 0-10.681 4.78-10.681 10.68v81.223c0 5.902 4.782 10.682 10.681 10.682h81.222c5.898 0 10.682-4.779 10.682-10.682v-81.223c0-5.9-4.784-10.68-10.682-10.68" fill="#12126D" p-id="7286"></path><path d="M823.145 724.584h79.787v79.789h-79.787z" fill="#B4CEFC" p-id="7287"></path><path d="M891.534 792.974h-56.991v-56.991h56.991v56.991z m12.117-79.787h-81.225c-5.899 0-10.681 4.78-10.681 10.68v81.223c0 5.902 4.781 10.682 10.681 10.682h81.225c5.897 0 10.679-4.779 10.679-10.682v-81.223c0-5.9-4.781-10.68-10.679-10.68" fill="#12126D" p-id="7288"></path><path d="M660.53 724.584h79.788v79.789H660.53z" fill="#B4CEFC" p-id="7289"></path><path d="M728.921 792.974H671.93v-56.991h56.991v56.991z m12.116-79.787h-81.224c-5.897 0-10.68 4.78-10.68 10.68v81.223c0 5.902 4.782 10.682 10.68 10.682h81.224c5.898 0 10.682-4.779 10.682-10.682v-81.223c0-5.9-4.783-10.68-10.682-10.68" fill="#12126D" p-id="7290"></path><path d="M497.918 861.364h79.787v79.787h-79.787z" fill="#B4CEFC" p-id="7291"></path><path d="M566.309 929.753h-56.992v-56.992h56.992v56.992z m12.113-79.787H497.2c-5.898 0-10.681 4.782-10.681 10.682v81.221c0 5.902 4.782 10.682 10.681 10.682h81.222c5.898 0 10.682-4.779 10.682-10.682v-81.221c0-5.9-4.784-10.682-10.682-10.682" fill="#12126D" p-id="7292"></path><path d="M660.53 861.364h79.788v79.787H660.53z" fill="#B4CEFC" p-id="7293"></path><path d="M728.921 929.753H671.93v-56.992h56.991v56.992z m12.116-79.787h-81.224c-5.897 0-10.68 4.782-10.68 10.682v81.221c0 5.902 4.782 10.682 10.68 10.682h81.224c5.898 0 10.682-4.779 10.682-10.682v-81.221c0-5.9-4.783-10.682-10.682-10.682" fill="#12126D" p-id="7294"></path><path d="M823.145 861.364h79.787v79.787h-79.787z" fill="#B4CEFC" p-id="7295"></path><path d="M891.534 929.753h-56.991v-56.992h56.991v56.992z m12.117-79.787h-81.225c-5.899 0-10.681 4.782-10.681 10.682v81.221c0 5.902 4.781 10.682 10.681 10.682h81.225c5.897 0 10.679-4.779 10.679-10.682v-81.221c0-5.9-4.781-10.682-10.679-10.682M629.567 22.796c12.568 0 22.796 10.229 22.796 22.797 0 12.571-10.228 22.798-22.796 22.798H83.593c-12.569 0-22.795-10.227-22.795-22.798 0-12.568 10.226-22.797 22.795-22.797h545.974m0-22.796H83.593C58.517 0 38 20.517 38 45.593s20.517 45.593 45.593 45.593h545.975c25.076 0 45.593-20.517 45.593-45.593S654.644 0 629.567 0M349.662 1020.534c-5.522 0-10-4.478-10-10V594.339c0-5.522 4.478-10 10-10s10 4.478 10 10v416.195c0 5.523-4.477 10-10 10zM73.527 1020.537a9.967 9.967 0 0 1-3.494-0.634c-5.175-1.931-7.805-7.69-5.874-12.864l151.086-404.956c1.931-5.175 7.696-7.803 12.864-5.874 5.175 1.931 7.805 7.69 5.874 12.864L82.897 1014.029a10.003 10.003 0 0 1-9.37 6.508z" fill="#12126D" p-id="7296"></path><path d="M241.499 316.15l15.843 12.21-72.126 93.594-15.843-12.208z" fill="#FFFFFF" p-id="7297"></path><path d="M335.788 386.542L246.1 330.744l10.564-16.982 75.204 46.788 169.898-195.69 15.101 13.112z" fill="#FFFFFF" p-id="7298"></path><path d="M249.404 291.866c6.284 0 11.398 5.114 11.398 11.398 0 6.285-5.114 11.398-11.398 11.398-6.285 0-11.397-5.113-11.397-11.398 0-6.284 5.112-11.398 11.397-11.398m0-22.797c-18.884 0-34.194 15.309-34.194 34.195 0 18.885 15.311 34.194 34.194 34.194 18.885 0 34.195-15.31 34.195-34.194 0.001-18.886-15.31-34.195-34.195-34.195M164.755 423.982c6.284 0 11.398 5.112 11.398 11.398 0 6.284-5.114 11.397-11.398 11.397-6.285 0-11.398-5.113-11.398-11.397-0.001-6.285 5.113-11.398 11.398-11.398m0-22.797c-18.885 0-34.195 15.311-34.195 34.196s15.311 34.194 34.195 34.194 34.194-15.309 34.194-34.194-15.31-34.196-34.194-34.196M338.266 389.787c6.283 0 11.396 5.112 11.396 11.397s-5.113 11.398-11.396 11.398c-6.285 0-11.398-5.113-11.398-11.398s5.112-11.397 11.398-11.397m0-22.797c-18.886 0-34.196 15.311-34.196 34.194 0 18.887 15.311 34.196 34.196 34.196 18.884 0 34.194-15.31 34.194-34.196 0-18.883-15.311-34.194-34.194-34.194M521.777 145.483c6.285 0 11.399 5.114 11.399 11.398s-5.114 11.398-11.399 11.398c-6.284 0-11.398-5.114-11.398-11.398s5.114-11.398 11.398-11.398m0-22.795c-18.886 0-34.195 15.308-34.195 34.194 0 18.886 15.31 34.195 34.195 34.195s34.194-15.31 34.194-34.195c0.001-18.887-15.308-34.194-34.194-34.194" fill="#FFFFFF" p-id="7299"></path></svg>